<svg id="Layer_1" data-name="Layer 1" xmlns="http://www.w3.org/2000/svg" viewBox="0 0 291.35 245.68"><title>monitor_Logo_final</title><path d="M77.38,266.7l-.2-.72A47.74,47.74,0,0,1,76,257.56c-.2-2.77,0-6.88.12-10.51.08-2.16.17-4.19.17-5.74,0-10.12-1.14-16.4-6.79-16.4-4.83,0-8.35,5.16-8.55,12.56v29.07H52.67V242.4c0-9.08-.82-17.49-6.78-17.49-5,0-8.55,5.43-8.55,13.21v28.42H29.05v-50h5.82l1.4,5.44C38,219.58,41.36,216,46.51,216c4.38,0,8.25,2.68,11.21,7.77h.44C60,220.71,63.91,216,70.36,216c8.78,0,14.23,8.58,14.23,22.38,0,2.08-.1,4.56-.2,7.19-.15,3.87-.31,7.88-.14,10.6.36,6,1.1,7.55,1.11,7.57l.42.84-.91.24ZM54.19,265h5.25V237.44c.23-8.28,4.37-14.05,10.07-14.05,7.66,0,8.31,9.25,8.31,17.92,0,1.56-.09,3.61-.17,5.8-.15,3.59-.31,7.65-.13,10.34a55.06,55.06,0,0,0,1,7.41l5.22-1.3a36.47,36.47,0,0,1-1-7.28c-.17-2.81,0-6.85.14-10.76.1-2.61.2-5.08.2-7.13,0-10.08-3.34-20.86-12.71-20.86-5.66,0-9.16,4-11.11,7.39l-.22.38H56.84l-.22-.39c-2.75-4.9-6.15-7.38-10.11-7.38-4.7,0-7.8,3.51-9.22,5.59l-.23.33H35L33.67,218h-3.1v47h5.25v-26.9c0-10.12,5.22-14.73,10.07-14.73,7.3,0,8.3,9.14,8.3,19Z" transform="translate(-29.05 -21.97)"/><path d="M176.19,266.69l-.29-.55c-.07-.13-1.64-3.18-1.64-10.08,0-5.78.17-13.6.17-13.68,0-11.91-2.54-17.47-8-17.47-5.66,0-9.62,5.43-9.62,13.21v28.42h-8.29v-50h5.81l1.37,5.47a14.11,14.11,0,0,1,11.66-6c9.63,0,15.38,8.78,15.38,23.47v0c0,.08-.35,8.2-.35,14.4,0,6.69,1.3,9.59,1.31,9.62l.36.79ZM150,265h5.25v-26.9c0-8.53,4.68-14.73,11.14-14.73,8.55,0,9.53,10.85,9.53,19,0,.09-.17,7.89-.17,13.66a25.89,25.89,0,0,0,1.23,8.8l5-1.51a31.45,31.45,0,0,1-1.15-9.44c0-6.09.33-14,.35-14.44,0-13.94-5.06-21.94-13.86-21.94a12.69,12.69,0,0,0-10.69,5.69l-.22.33h-1.92L153.13,218H150Z" transform="translate(-29.05 -21.97)"/><path d="M203,266.54h-8.29V216.85l1.12.61a6.94,6.94,0,0,0,3,.64,7,7,0,0,0,3-.64l1.12-.61v49.69ZM196.18,265h5.25V219.24a9.26,9.26,0,0,1-5.25,0Z" transform="translate(-29.05 -21.97)"/><path d="M232,267c-6.9,0-11.53-6.39-11.53-15.9V225.2h-6.7v-7.83h3.15c2.59,0,4.39-2.44,4.39-5.93v-9.5h7.56V216.5h9v8.6H229v25.25c0,7.49,2.87,7.49,3.82,7.49a3.29,3.29,0,0,0,2.54-1.14l.76-.73,3.61,7.32-.35.39A9.54,9.54,0,0,1,232,267Zm-16.71-43.35H222v27.45c0,8.73,3.93,14.38,10,14.38a7.89,7.89,0,0,0,5.85-2.49l-2.25-4.56a4.55,4.55,0,0,1-2.83.9c-3.55,0-5.34-3-5.34-9V223.58h8.88V218h-9V203.46h-4.52v8c0,4.38-2.43,7.45-5.91,7.45h-1.63Z" transform="translate(-29.05 -21.97)"/><path d="M307.48,266.54h-8.29v-50H305l1.39,5.44c2.8-3.93,6.45-5.93,10.86-5.93h3.14v10.08l-.94-.23a14.42,14.42,0,0,0-3-.37c-4.36,0-9,3.06-9,11.66ZM300.71,265H306V237.15c0-9.71,5.44-13.18,10.53-13.18a16.21,16.21,0,0,1,2.39.22v-6.66h-1.62c-4,0-7.31,1.89-9.84,5.59l-.23.33h-2.07L303.81,218h-3.1Z" transform="translate(-29.05 -21.97)"/><path d="M198.61,211.64a4.74,4.74,0,1,1,4.74-4.74A4.74,4.74,0,0,1,198.61,211.64Zm0-8a3.22,3.22,0,1,0,3.22,3.22A3.22,3.22,0,0,0,198.61,203.68Z" transform="translate(-29.05 -21.97)"/><path d="M116.35,267.64c-12.55,0-22.75-11.62-22.75-25.91s10.2-25.91,22.75-25.91,22.75,11.62,22.75,25.91S128.89,267.64,116.35,267.64Zm0-50.3c-11.71,0-21.23,10.94-21.23,24.39s9.52,24.39,21.23,24.39,21.23-10.94,21.23-24.39S128.05,217.34,116.35,217.34Zm0,43.62c-8.86,0-16.07-8.63-16.07-19.23s7.21-19.23,16.07-19.23,16.06,8.63,16.06,19.23S125.2,261,116.35,261Zm0-36.94c-8,0-14.55,7.95-14.55,17.71s6.53,17.71,14.55,17.71,14.54-7.94,14.54-17.71S124.37,224,116.35,224Z" transform="translate(-29.05 -21.97)"/><path d="M267.64,267.64c-12.54,0-22.74-11.62-22.74-25.91s10.2-25.91,22.74-25.91,22.75,11.62,22.75,25.91S280.19,267.64,267.64,267.64Zm0-50.3c-11.7,0-21.22,10.94-21.22,24.39s9.52,24.39,21.22,24.39,21.23-10.94,21.23-24.39S279.35,217.34,267.64,217.34Zm0,43.62c-8.85,0-16.06-8.63-16.06-19.23s7.21-19.23,16.06-19.23,16.07,8.63,16.07,19.23S276.5,261,267.64,261Zm0-36.94c-8,0-14.54,7.95-14.54,17.71s6.52,17.71,14.54,17.71,14.55-7.94,14.55-17.71S275.67,224,267.64,224Z" transform="translate(-29.05 -21.97)"/></svg>